<svg width="298" height="179" viewBox="0 0 298 179" fill="none" xmlns="http://www.w3.org/2000/svg">
<path d="M295.746 96.1878H256.514C255.387 94.6441 254.862 92.6684 253.924 90.9305C244.959 74.3085 221.556 74.3363 212.066 90.5144C202.559 106.722 205.621 141.355 227.546 145.42C240.725 147.863 251.7 141.02 256.328 128.56C256.715 127.521 258.095 121.624 258.768 121.624H298C296.53 144.512 282.487 163.912 261.821 172.796C243.624 180.617 219.126 180.322 201.148 171.952C195.915 169.516 191.264 166.266 186.823 162.581C185.96 162.575 186.694 166.875 186.708 167.525C186.737 168.844 186.891 174.284 186.327 175.045C186.195 175.223 186.04 175.293 185.824 175.297L95.1998 175.039V119.46C95.1998 119.323 94.6416 118.933 94.4503 119.08C94.4171 119.438 94.2844 119.803 94.0619 120.084C91.6904 123.09 89.7502 125.08 86.6058 127.274C72.8063 136.906 56.2859 135.317 40.2984 135.357L40.0485 175.293H0.818467L0.180215 172.887C0.646705 163.112 -0.399482 152.817 0.180215 143.105C0.221204 142.425 0.428099 140.242 0.677935 139.796C12.7676 127.539 25.8606 116.371 39.4142 105.821C47.3191 106.007 58.4212 106.98 60.2891 96.7565C60.5858 95.1355 60.3516 91.9292 60.9118 90.7759C61.2202 90.1378 62.8519 89.0697 63.5311 88.6001C67.3899 85.9269 71.5766 83.4558 75.5682 80.9728C94.2043 69.3901 113.578 59.0539 133.55 50.0137C134.08 49.5044 133.714 49.5658 133.284 49.7442C127.825 52.027 122.182 53.8561 116.695 56.0596C109.446 58.9727 102.351 62.278 95.1978 65.407V49.3815L135.021 49.4172L135.056 140.188H170.904C170.275 138.335 169.563 136.476 169.024 134.592C162.792 112.798 165.558 85.5821 180.802 68.2011C196.754 50.0117 219.191 44.0489 242.693 46.6171C268.633 49.4529 293.523 68.5123 295.744 96.1858L295.746 96.1878Z" fill="#203A60"/>
<path d="M40.3 79.6544C39.6735 80.2865 40.3 92.7035 40.0541 94.7941C40.0053 95.2102 39.9624 95.6006 39.6598 95.9197C28.5558 103.644 17.2956 111.226 6.8396 119.85C4.72185 121.596 2.81881 123.635 0.568336 125.188L0.439514 49.3849L60.9778 49.3889C70.8346 50.233 80.2913 52.6011 88.046 59.0592C88.9048 59.7746 94.7271 65.4243 94.1943 66.1694C82.048 71.3553 70.4833 77.8273 58.9108 84.1923C57.8041 84.3667 57.1678 82.9974 56.3207 82.3474C54.5133 80.9563 50.6819 79.6544 48.4451 79.6544H40.2981H40.3Z" fill="#203A60"/>
<path d="M221.48 0.355419C222.684 1.39181 219.423 5.70187 218.665 6.65504C214.68 11.6666 209.115 14.8273 203.993 18.4755C203.41 19.0205 204.559 19.0938 204.885 19.3613C205.356 19.7477 205.847 21.014 205.576 21.5887C205.287 22.201 200.81 25.1358 199.959 25.5737C199.158 25.9859 196.367 27.1551 195.592 27.2522C194.722 27.3631 195.651 26.1385 195.473 25.9859L192.971 26.3684C183.044 32.3371 173.943 37.6577 162.827 41.0582C159.606 42.0431 155.262 43.8167 152.17 43.3312C149.687 42.9408 144.339 45.6259 141.577 45.8221C141.642 45.4416 142.038 45.3326 142.331 45.1899C144.981 43.8959 149.332 43.3827 151.694 41.9718C152.855 41.2782 153.517 39.9802 151.758 39.7226L139.571 44.0406C142.651 41.2742 146.871 40.2656 150.601 38.6981L150.476 37.9372L145.102 31.9268C146.234 30.2643 147.245 29.9789 149.094 30.4386C152.158 31.1996 157.809 33.9977 160.575 34.067C161.137 34.0809 164.425 32.7948 165.134 32.4659C168.317 30.9876 172.327 27.8348 175.346 25.7858C180.583 22.2347 186.803 18.2793 191.689 14.3894C196.219 10.7808 206.156 0.460445 211.641 0.04232C212.792 -0.044872 214.637 0.0304302 215.89 0.0284486C216.926 0.026467 220.9 -0.139991 221.476 0.355419H221.48Z" fill="#203A60"/>
</svg>
