<svg width="148" height="155" viewBox="0 0 148 155" fill="none" xmlns="http://www.w3.org/2000/svg">
<path d="M75.1313 105.163C83.4909 105.163 90.2949 98.3381 90.2949 89.9605C90.2949 81.583 83.4909 74.7581 75.1313 74.7581C66.7717 74.7581 59.9677 81.583 59.9677 89.9605C59.9677 98.3381 66.7717 105.163 75.1313 105.163ZM75.1313 94.9598C72.379 94.9598 70.1395 92.7246 70.1395 89.9605C70.1395 87.1964 72.379 84.9613 75.1313 84.9613C77.8836 84.9613 80.1231 87.1964 80.1231 89.9605C80.1231 92.7246 77.8836 94.9598 75.1313 94.9598Z" fill="#89CDE9"/>
<path d="M47.6932 154.029C48.9583 153.91 50.2233 153.739 51.4542 153.552C55.7451 152.852 59.9335 151.675 63.8996 150.037L64.0022 150.003C65.5408 149.371 67.4554 148.569 69.8659 147.153C71.3703 146.249 72.8405 145.259 74.2081 144.167C74.4645 143.963 74.6868 143.724 74.8577 143.451C74.9261 143.348 75.0629 143.314 75.1483 143.383C77.0288 144.782 78.9948 146.044 81.012 147.17C87.7989 150.975 95.2525 153.279 103.151 154.029L105.151 154.115L118.468 154.251C128.571 154.251 136.777 146.01 136.777 135.892V65.5105C136.777 65.3911 136.863 65.3057 136.982 65.3057C141.871 65.1522 145.94 62.0639 147.393 57.3377C148.881 52.492 147.137 47.5269 142.966 44.6775L80.2599 1.97069C76.4134 -0.656896 71.4387 -0.656896 67.5922 1.97069L5.21133 44.4727C0.527204 47.6634 -1.35328 53.7887 1.04006 58.9245C2.83507 62.7635 6.51057 65.2034 10.8528 65.3228C10.9554 65.3228 11.0579 65.4081 11.0579 65.5276V135.909C11.0579 146.027 19.2637 154.268 29.367 154.268H41.6073H45.2828M125.426 135.909C125.426 139.748 122.314 142.871 118.485 142.871H106.382C99.116 142.649 92.4659 140.772 86.6193 137.291C85.4739 136.609 84.3456 135.858 83.2686 135.056C83.4738 134.937 83.6447 134.783 83.8157 134.613L99.3382 119.069L101.629 116.765C108.621 109.736 112.467 100.369 112.467 90.4214C112.467 80.4741 108.621 71.124 101.629 64.0773C94.5345 56.9452 85.1149 53.0039 75.08 53.0039C65.045 53.0039 55.6255 56.9282 48.5309 64.0773C44.24 68.394 41.0431 73.7345 39.2994 79.5186C38.2395 83.0334 37.6925 86.7018 37.6925 90.4214C37.6925 100.369 41.5389 109.719 48.5309 116.765L67.1819 135.534C67.1819 135.534 67.1135 135.568 67.0793 135.602C66.1904 136.165 65.2501 136.728 64.2928 137.24C62.8568 138.025 61.5063 138.69 60.2754 139.236C56.6341 140.806 52.7535 141.898 48.719 142.461C47.2488 142.666 45.7615 142.802 44.3255 142.888H29.3499C25.5206 142.888 22.4092 139.765 22.4092 135.926V55.6144C22.4092 55.1366 22.0331 54.7613 21.5545 54.7613H11.1947C10.9212 54.7613 10.6647 54.7271 10.528 54.2665C10.3912 53.8058 10.5793 53.6352 10.8015 53.4816L73.5243 10.7407C73.7636 10.5871 74.0713 10.5871 74.3107 10.7407L137.033 53.4645C137.256 53.6181 137.444 53.7887 137.307 54.2494C137.17 54.7101 136.914 54.7442 136.64 54.7442H126.28C125.802 54.7442 125.426 55.1366 125.426 55.5973V135.909ZM50.4456 82.6922C51.6594 78.7849 53.8305 75.1848 56.7367 72.2671C61.643 67.3361 68.1564 64.6062 75.0971 64.6062C82.0378 64.6062 88.5511 67.3191 93.4574 72.2671C98.2783 77.1128 100.928 83.5623 100.928 90.4214C100.928 97.2804 98.2783 103.73 93.4574 108.576L75.7467 126.457C75.5415 126.679 75.3535 126.917 75.2167 127.173L56.7367 108.576C51.9158 103.73 49.266 97.2804 49.266 90.4214C49.266 87.7938 49.6592 85.2003 50.4285 82.7092L50.4456 82.6922Z" fill="#89CDE9"/>
</svg>
