<svg width="186" height="186" viewBox="0 0 186 186" fill="none" xmlns="http://www.w3.org/2000/svg">
<path d="M161.459 76.9006V109.433H108.978V162.048H76.3116V109.433H23.8307V76.9006H76.3116V24.2859H108.978V76.9006H161.459Z" fill="white"/>
<path d="M185.29 76.3651H117.814V161.513H185.29V76.3651Z" fill="#3981AB"/>
<path d="M161.513 0H76.365V67.4754H161.513V0Z" fill="#53B6D3"/>
<path d="M108.884 117.734H23.7368V185.209H108.884V117.734Z" fill="#2C7294"/>
<path d="M67.4754 23.7502H0V108.898H67.4754V23.7502Z" fill="#25546F"/>
<path d="M161.459 67.5289H108.978V76.365H161.459V67.5289Z" fill="#E4E4E4"/>
<path d="M117.841 109.005H109.005V161.486H117.841V109.005Z" fill="#E4E4E4"/>
<path d="M76.3517 23.8173H67.5156V76.2981H76.3517V23.8173Z" fill="#E4E4E4"/>
<path d="M76.3116 108.898H23.8307V117.734H76.3116V108.898Z" fill="#E4E4E4"/>
<path d="M161.459 76.365V108.898H108.978V161.513H76.3116V108.898H23.8307V76.365H76.3116V23.7502H108.978V76.365H161.459Z" fill="white"/>
</svg>
