<svg width="278" height="154" viewBox="0 0 278 154" fill="none" xmlns="http://www.w3.org/2000/svg">
<g clip-path="url(#clip0_1200_60)">
<path d="M277.455 47.2104C270.414 43.2037 263.133 39.8588 255.698 36.7762C247.369 33.3478 238.813 30.3547 230.197 27.6954C229.338 24.8931 228.349 22.1265 227.198 19.4077C224.408 13.3737 219.751 6.45731 213.067 4.44201C212.84 4.37642 212.62 4.33469 212.399 4.29295C212.358 4.2691 212.31 4.25717 212.256 4.25121C212.244 4.25121 212.232 4.25121 212.22 4.25121C212.167 4.20948 212.113 4.17966 212.047 4.16774C193.761 0.727422 174.997 -1.21036 156.382 0.828784C104.092 5.81337 57.1915 33.0557 27.928 76.8437C17.9588 91.6305 10.0944 107.795 4.65665 124.793C2.83215 130.625 1.18652 136.581 0.137136 142.621C-0.733378 147.731 2.70694 152.578 7.81673 153.443C13.0637 154.343 18.0125 150.646 18.6981 145.382L18.8293 144.613C20.5823 135.681 23.1103 126.91 26.2943 118.372C29.198 117.776 32.7337 117.162 35.1902 116.708L36.5854 116.458L37.9866 116.249C40.0019 115.927 42.0172 115.635 44.0444 115.355C41.0751 122.736 38.6126 130.309 36.7702 138.054C35.9116 141.864 38.3264 145.644 42.1424 146.473C46.0179 147.325 49.8339 144.768 50.5613 140.874L50.7163 140.171L50.9012 139.372L51.3066 137.732C53.5366 129.522 56.3449 121.46 59.6719 113.614C74.1308 112.386 88.6969 112.201 103.162 113.083C128.532 114.836 153.956 119.183 178.324 126.749C178.044 130.279 177.799 133.809 177.597 137.344C177.412 140.928 180.333 143.957 183.917 143.903C187.375 143.867 190.142 141.029 190.106 137.577C190.094 136.623 190.1 135.573 190.106 134.566C190.106 133.29 190.13 132.002 190.142 130.714C192.729 131.65 195.311 132.604 197.875 133.618C198.34 133.838 198.9 133.648 199.127 133.183C199.353 132.717 199.163 132.151 198.698 131.924C195.883 130.541 193.045 129.265 190.177 128.049C190.338 118.33 190.756 108.355 191.334 98.5826C193.331 99.3756 195.317 100.181 197.29 101.033C197.666 101.212 198.125 101.057 198.316 100.681C198.513 100.3 198.364 99.8288 197.976 99.632C195.824 98.523 193.653 97.4617 191.459 96.4362C191.62 93.8246 191.787 91.2191 191.966 88.6552C192.711 78.06 193.677 67.4469 195.102 56.8994C197.141 57.4897 199.175 58.0978 201.202 58.7298C213.526 62.6471 225.767 67.1726 237.34 72.9681C237.71 73.1768 238.181 73.0635 238.401 72.6938C238.622 72.3242 238.509 71.8412 238.139 71.6206C224.724 63.7204 210.426 57.5374 195.728 52.4693C197.022 43.7284 198.656 35.0471 200.773 26.4731C203.372 26.8726 205.972 27.296 208.559 27.761C214.498 28.876 220.425 30.1281 226.321 31.5531C226.375 31.8632 226.435 32.1732 226.482 32.4833C227.782 40.5445 228.259 48.8143 228.027 56.9709C228.545 61.7826 235.438 61.3235 235.307 56.476C234.603 48.546 233.542 40.6041 231.616 32.8768C247.023 36.8776 262.126 42.0887 276.43 49.0349C276.925 49.3033 277.551 49.1303 277.831 48.6355C278.117 48.1346 277.944 47.4966 277.443 47.2164M207.474 5.3483C206.055 6.35595 204.881 7.88233 203.73 9.49218C201.548 12.8132 199.848 16.3788 198.399 20.0516C186.153 17.8098 173.769 16.343 161.337 15.6931C164.133 14.7212 166.954 13.8209 169.804 12.9981C181.329 9.62335 193.123 7.01777 205.065 5.61661C205.87 5.51524 206.675 5.43177 207.48 5.34233M153.389 8.38913C166.966 5.03825 180.977 4.06041 194.971 4.28102C197.171 4.3168 199.371 4.38239 201.572 4.4599C184.4 5.2529 167.258 8.31758 150.813 13.2604C148.733 13.9044 146.67 14.596 144.618 15.3294C142.216 15.3473 139.819 15.383 137.422 15.4606C133.976 15.6335 130.517 15.8779 127.059 16.188C130.404 14.9359 133.803 13.7672 137.249 12.7119C142.496 11.0961 148.011 9.63528 153.389 8.38913ZM68.1683 72.515C62.039 72.8846 55.9215 73.5166 49.8339 74.417C56.2793 65.6224 63.4819 57.5612 71.3642 50.293C78.0183 48.9694 84.7677 47.8663 91.5052 47.0972C82.9015 54.7589 75.0788 63.303 68.1683 72.5209M103.943 37.0326C98.1653 37.0982 92.3877 37.3605 86.628 37.8137C89.8835 35.4585 93.2224 33.2226 96.6389 31.1059C98.7377 30.5037 100.848 29.9254 102.971 29.4305C109.142 27.9041 115.367 26.6759 121.627 25.7159C115.498 29.1026 109.589 32.8887 103.943 37.0386M30.8674 107.24C34.0633 100.127 37.7063 93.2105 41.719 86.5445C42.0351 86.461 42.3212 86.3835 42.5717 86.3179C44.0503 85.9483 48.5937 84.9704 50.0545 84.6246C53.7095 83.8912 57.3823 83.2652 61.0671 82.7226C61.0432 82.7643 61.0134 82.8061 60.9836 82.8478C56.3449 90.0564 52.1175 97.569 48.4327 105.332C42.5657 105.791 36.7106 106.423 30.8674 107.234M178.592 123.5C178.145 123.333 177.698 123.166 177.251 123.005C145.304 111.599 111.438 105.267 77.5114 104.521C72.9323 104.42 68.3591 104.432 63.7919 104.551C67.7748 96.3646 72.3241 88.4584 77.4101 80.9279C90.4976 79.962 103.669 80.0932 116.732 81.2439C138.745 83.3785 160.777 87.7549 181.752 95.029C180.488 104.497 179.409 113.99 178.592 123.506M182.11 92.3102C171.229 87.8145 159.99 84.1476 148.649 81.0651C127.494 75.5081 105.588 72.2705 83.6945 72.1035C91.064 62.4027 99.4889 53.5545 108.755 45.7198C110.561 45.6423 112.344 45.5887 114.055 45.5529C115.426 45.4992 118.205 45.4694 119.57 45.4933C130.517 45.4456 141.786 46.173 152.638 47.6457C164.688 49.3271 176.631 51.8492 188.401 55.0152C185.729 67.3396 183.762 79.8249 182.11 92.3102ZM194.16 32.6681C192.383 38.5172 190.833 44.426 189.45 50.3765C184.883 48.9097 180.292 47.5324 175.683 46.2386C157.39 41.2182 138.531 38.231 119.57 37.3188C126.88 32.1017 134.614 27.4689 142.687 23.4919C160.556 22.4247 178.568 23.3608 196.325 25.8173C195.567 28.0949 194.864 30.3905 194.166 32.6681M202.299 20.785C203.748 16.1284 206.807 7.06547 211.129 6.43942C213.86 6.67792 215.953 8.74688 217.765 10.7801C221.558 15.1863 223.782 20.63 225.212 26.2525C217.652 24.124 210.008 22.2995 202.305 20.785" fill="#142239"/>
<path d="M212.143 4.25722C157.044 10.953 121.389 50.0128 102.834 100.061C100.431 106.59 98.3084 113.209 96.7462 119.976C95.2377 128.747 82.7047 126.749 84.094 117.937C84.6008 115.921 85.2566 113.835 85.8946 111.861C104.163 56.178 149.49 3.54769 212.143 4.25722Z" fill="#142239"/>
<path d="M124.525 139.604C131.006 96.6747 150.205 30.784 191.793 10.1302C198.185 6.92242 205.143 5.01445 212.149 4.26318C205.215 5.53914 198.519 7.942 192.544 11.5194C158.201 32.1912 145.012 82.9254 139.33 120.262C138.4 126.654 137.648 133.099 137.177 139.533L137.1 140.743V140.85C136.879 144.332 133.88 146.98 130.398 146.765C126.749 146.556 124.018 143.217 124.531 139.598" fill="#142239"/>
</g>
<defs>
<clipPath id="clip0_1200_60">
<rect width="277.98" height="153.58" fill="white"/>
</clipPath>
</defs>
</svg>
