<svg width="172" height="186" viewBox="0 0 172 186" fill="none" xmlns="http://www.w3.org/2000/svg">
<path d="M73.9492 84.5808C64.0887 84.5817 54.4162 84.5781 44.7437 84.5871C41.8746 84.5897 41.8477 84.6257 41.8438 87.5593C41.8342 94.8299 41.7922 102.101 41.8555 109.371C41.8714 111.187 41.3429 111.971 39.408 111.834C37.2767 111.682 35.1243 111.752 32.9845 111.826C31.6103 111.873 30.9695 111.45 30.9744 109.961C31.0099 99.0555 31.0155 88.1495 30.9676 77.2438C30.9602 75.5752 31.7755 75.356 33.1539 75.3608C43.6053 75.3972 54.0568 75.3886 64.5083 75.3831C67.2829 75.3817 67.2927 75.3616 67.2935 72.5253C67.2967 61.6844 67.3349 50.8431 67.2566 40.0027C67.2429 38.1144 67.8416 37.5483 69.702 37.5562C83.8511 37.6167 98.0007 37.6222 112.15 37.5504C114.09 37.5405 114.566 38.2255 114.548 40.0445C114.47 48.0284 114.463 56.0142 114.557 63.9978C114.579 65.8912 113.984 66.5779 112.109 66.4265C110.496 66.2963 108.862 66.3323 107.243 66.4123C105.71 66.4881 105.207 65.8643 105.228 64.3505C105.299 59.288 105.194 54.2227 105.292 49.1611C105.326 47.3772 104.732 46.7764 102.953 46.7926C95.4881 46.8602 88.0219 46.8671 80.5575 46.7813C78.6385 46.7592 78.1098 47.5081 78.1187 49.3039C78.1711 59.7552 78.1554 70.2068 78.1379 80.6583C78.1305 85.057 78.5832 84.5502 73.9492 84.5808Z" fill="#142239"/>
<path d="M103.827 113.877C103.827 110.695 103.906 107.706 103.796 104.724C103.733 103.012 104.336 102.48 106.036 102.49C116.358 102.556 126.681 102.533 137.004 102.53C139.88 102.529 139.896 102.514 139.9 99.6021C139.911 92.2659 139.949 84.9293 139.877 77.5938C139.86 75.8865 140.42 75.2749 142.123 75.3582C144.454 75.4723 146.796 75.4203 149.133 75.3859C150.3 75.3687 150.76 75.8764 150.759 77.0225C150.744 88.0592 150.736 99.096 150.769 110.133C150.774 111.766 149.837 111.819 148.611 111.816C138.223 111.792 127.835 111.798 117.448 111.802C114.517 111.803 114.513 111.812 114.512 114.659C114.511 125.566 114.485 136.473 114.54 147.38C114.548 148.979 114.065 149.545 112.434 149.541C98.2174 149.5 84.0005 149.495 69.784 149.565C67.8248 149.575 67.2238 148.96 67.2514 146.994C67.3561 139.529 67.3395 132.062 67.2604 124.596C67.2415 122.817 67.785 122.102 69.5999 122.233C71.2792 122.355 72.9764 122.318 74.6613 122.246C76.0863 122.186 76.6165 122.736 76.5969 124.18C76.5343 128.789 76.6387 133.4 76.5403 138.008C76.5022 139.789 77.1018 140.404 78.8846 140.388C86.4149 140.322 93.9465 140.326 101.477 140.389C103.227 140.404 103.876 139.839 103.858 138.027C103.782 130.043 103.826 122.057 103.827 113.877Z" fill="#142239"/>
<path d="M10.6735 42.7688C7.19891 46.6527 3.81906 50.4366 0.439214 54.2205C0.292813 54.1434 0.146401 54.0662 0 53.989C0.408566 53.0378 0.748955 52.05 1.23596 51.1407C8.39054 37.7826 17.3723 25.9206 29.5703 16.7145C38.9738 9.61747 49.4301 4.86432 60.9357 2.24158C72.5516 -0.406325 84.227 -0.568383 95.9338 1.023C109.667 2.88986 122.469 7.41472 134.17 15.0015C141.189 19.5526 147.572 24.7829 153.041 31.1125C160.646 39.9127 165.662 50.0409 168.622 61.257C172.006 74.0778 172.021 87.0644 170.491 100.091C169.925 104.908 168.743 109.656 167.755 114.418C167.489 115.701 167.717 116.597 168.662 117.543C172.273 121.156 172.991 126.211 170.636 130.608C168.545 134.513 163.538 136.67 158.762 135.723C154.945 134.966 151.548 131.237 150.833 127.02C150.132 122.886 152.085 118.425 155.49 116.43C158.227 114.825 161.109 114.061 164.248 115.067C165.606 115.503 166.165 114.988 166.287 113.633C168.276 91.5179 164.97 70.4566 153.056 51.3773C143.397 35.9102 130.012 24.5242 112.935 17.9684C107.178 15.7583 100.948 14.6813 94.8585 13.4615C85.9533 11.6777 76.9352 11.5768 67.9406 12.7901C60.0735 13.8512 52.4146 15.8038 45.0781 18.8916C31.974 24.4067 20.6297 32.4702 10.6735 42.7688Z" fill="#142239"/>
<path d="M48.7787 165.944C51.785 167.589 54.6701 169.164 57.5552 170.738C57.5437 170.846 57.5322 170.953 57.5207 171.061C57.0801 171.041 56.6189 171.1 56.2019 170.991C39.6331 166.635 25.4165 158.676 15.4993 144.223C9.77843 135.885 6.56449 126.549 4.83265 116.661C1.96581 100.292 4.39443 84.7226 12.2402 70.0861C17.633 60.0257 25.2543 51.8634 34.5186 45.2389C37.0496 43.4292 39.7037 41.7902 42.321 40.1035C42.9469 39.7001 43.652 39.4194 44.3206 39.0823C44.4345 39.2153 44.5484 39.3483 44.6622 39.4814C44.3821 39.8051 44.1485 40.1899 43.8152 40.4437C32.0877 49.3707 22.7029 60.2088 16.9301 73.888C13.0388 83.1088 11.491 92.771 12.0286 102.791C12.5098 111.759 14.4858 120.378 17.7735 128.696C21.2489 137.49 26.5888 145.131 32.7607 152.219C37.3935 157.54 42.7355 162.047 48.7787 165.944Z" fill="#142239"/>
<path d="M92.2141 168.544C95.2844 173.184 94.7134 178.743 90.8755 182.512C87.3393 185.985 81.52 186.377 77.2719 183.428C73.1698 180.582 71.7097 175.029 73.8037 170.239C77.0195 162.883 86.643 161.931 92.2141 168.544Z" fill="#142239"/>
</svg>
