<svg width="146" height="153" viewBox="0 0 146 153" fill="none" xmlns="http://www.w3.org/2000/svg">
<path d="M145.49 37.36C145.49 19.63 132.92 4.25 115.59 0.79C113.18 0.31 111.24 0.19 107.75 0.02C107.37 0.02 99.3 0 93.98 0H10.86V3.74C10.86 16.57 18.32 28.47 29.85 34.07L32.05 35.14L31.37 37.49C30.07 42.01 29.39 46.7 29.36 51.45L29.34 54.21L26.58 54.33C11.67 54.98 0 67.18 0 82.11V152.12H37.81C78.61 152.12 111.8 118.93 111.8 78.13V59.12L113.98 58.56C119.23 57.2 123.72 54.17 126.94 49.77L127.81 48.59H145.47V37.37L145.49 37.36Z" fill="black"/>
<path d="M108.09 55.57C118.987 55.57 127.82 46.7366 127.82 35.84C127.82 24.9434 118.987 16.11 108.09 16.11C97.1934 16.11 88.36 24.9434 88.36 35.84C88.36 46.7366 97.1934 55.57 108.09 55.57Z" fill="#34A853"/>
<path d="M14.59 3.72998H109.53V33.76H44.62C28.05 33.76 14.59 20.31 14.59 3.72998Z" fill="#F9D72D"/>
<path d="M81.16 3.72998H108.09V78.11C108.09 116.89 76.6 148.38 37.82 148.38H33.22C33.15 148.38 33.09 148.32 33.09 148.25V51.8C33.09 25.27 54.63 3.72998 81.16 3.72998Z" fill="#EA4335"/>
<path d="M27.82 58H35.28C48.57 58 59.36 68.79 59.36 82.08V107.86C59.36 130.22 41.21 148.36 18.86 148.36H3.72998V82.07C3.72998 68.78 14.52 57.99 27.81 57.99L27.82 58Z" fill="#3F4AF5"/>
<path d="M108.13 3.72998C126.69 3.72998 141.76 18.8 141.76 37.36V44.85H108.13V3.72998Z" fill="#3F4AF5"/>
<path d="M95.48 3.65002H108.12V55.57H95.48C81.15 55.57 69.52 43.94 69.52 29.61C69.52 15.28 81.15 3.65002 95.48 3.65002Z" fill="#F1F2F2"/>
<path d="M89.52 26.69C93.0491 26.69 95.91 23.8291 95.91 20.3C95.91 16.7709 93.0491 13.91 89.52 13.91C85.9909 13.91 83.13 16.7709 83.13 20.3C83.13 23.8291 85.9909 26.69 89.52 26.69Z" fill="#3F4AF5"/>
</svg>
